# Blender 3.2.2
# www.blender.org
mtllib pool.mtl
o pool v1
v -10.000000 1.000002 -10.000000
v 10.000000 1.000002 -10.000000
v -10.000000 5.000001 -9.999999
v 10.000000 5.000001 -9.999999
v 10.000000 0.999998 10.000000
v 10.000000 4.999999 10.000001
v -10.000000 0.999998 10.000000
v -10.000000 4.999999 10.000001
v -12.000000 4.999998 12.000001
v 12.000000 4.999998 12.000001
v 12.000000 5.000002 -11.999999
v -12.000000 5.000002 -11.999999
v -12.000000 0.000002 -12.000000
v -12.000000 -0.000002 12.000000
v 12.000000 0.000002 -12.000000
v 12.000000 -0.000002 12.000000
vn -0.0000 -0.0000 1.0000
vn -1.0000 -0.0000 -0.0000
vn 1.0000 -0.0000 -0.0000
vn -0.0000 -0.0000 -1.0000
vn -0.0000 1.0000 -0.0000
vn -0.0000 -1.0000 -0.0000
vt 0.000000 0.100000
vt 2.000000 0.100000
vt -1.000000 -1.000000
vt 2.000000 0.100000
vt 0.000000 0.100000
vt -1.000000 1.000000
vt 0.000000 0.500000
vt 2.000000 0.500000
vt -1.000000 -1.000000
vt 2.000000 0.500000
vt 0.000000 0.500000
vt -1.000000 1.000000
vt 2.000000 0.100000
vt 0.000000 0.100000
vt 1.000000 1.000000
vt 2.000000 0.500000
vt 0.000000 0.500000
vt 1.000000 1.000000
vt 0.000000 0.100000
vt 2.000000 0.100000
vt 1.000000 -1.000000
vt 0.000000 0.500000
vt 2.000000 0.500000
vt 1.000000 -1.000000
vt 1.200000 -1.200000
vt 2.400000 0.500000
vt 0.000000 0.500000
vt 1.200000 1.200000
vt -0.000000 0.500000
vt 2.400000 0.500000
vt -1.200000 1.200000
vt -0.000000 0.500000
vt 2.400000 0.500000
vt -1.200000 -1.200000
vt 0.000000 0.500000
vt 2.400000 0.500000
vt 0.000000 0.000000
vt 2.400000 0.000000
vt 1.200000 1.200000
vt 2.400000 0.000000
vt 0.000000 0.000000
vt 1.200000 -1.200000
vt -0.000000 0.000000
vt 2.400000 0.000000
vt -1.200000 1.200000
vt -0.000000 0.000000
vt 2.400000 0.000000
vt -1.200000 -1.200000
s 1
usemtl Material.004
f 1/1/1 2/4/1 3/7/1
f 3/7/1 2/4/1 4/10/1
f 2/5/2 5/13/2 4/11/2
f 4/11/2 5/13/2 6/16/2
f 7/19/3 1/2/3 8/22/3
f 8/22/3 1/2/3 3/8/3
f 5/14/4 7/20/4 6/17/4
f 6/17/4 7/20/4 8/23/4
f 8/24/5 9/25/5 6/18/5
f 6/18/5 9/25/5 10/28/5
f 6/18/5 10/28/5 11/31/5
f 8/24/5 3/9/5 9/25/5
f 9/25/5 3/9/5 12/34/5
f 12/34/5 3/9/5 4/12/5
f 12/34/5 4/12/5 11/31/5
f 11/31/5 4/12/5 6/18/5
f 13/37/2 14/40/2 12/35/2
f 12/35/2 14/40/2 9/26/2
f 15/43/4 13/38/4 11/32/4
f 11/32/4 13/38/4 12/36/4
f 16/46/3 15/44/3 10/29/3
f 10/29/3 15/44/3 11/33/3
f 14/41/1 16/47/1 9/27/1
f 9/27/1 16/47/1 10/30/1
f 5/15/5 2/6/5 7/21/5
f 7/21/5 2/6/5 1/3/5
f 16/48/6 14/42/6 15/45/6
f 15/45/6 14/42/6 13/39/6
